<svg width="32" height="32" viewBox="0 0 32 32" fill="none" xmlns="http://www.w3.org/2000/svg">
<path d="M22.9794 26C22.9794 26.8283 22.308 27.4998 21.4796 27.4998C20.6513 27.4998 19.9799 26.8283 19.9799 26C19.9799 25.1717 20.6513 24.5002 21.4796 24.5002C22.308 24.5002 22.9794 25.1717 22.9794 26Z" fill="#FD4D00"/>
<path d="M22.9798 8.58288C22.8737 7.19834 22.248 5.90524 21.228 4.96297C20.208 4.02091 18.8693 3.49949 17.4807 3.50357C15.8834 3.4414 14.364 4.19455 13.4463 5.50326H12.4814C11.0359 5.5031 9.64837 6.07218 8.61923 7.08731C7.5901 8.10245 7.00198 9.48195 6.98227 10.9274C5.57411 11.5484 4.53036 12.7832 4.15279 14.2752C3.77508 15.767 4.10576 17.3498 5.04899 18.5658C5.99222 19.7818 7.443 20.4955 8.98197 20.5009H12.1214C12.0337 20.8271 11.9867 21.1629 11.9815 21.5007C11.9815 22.9295 12.7438 24.2498 13.9812 24.9642C15.2186 25.6788 16.7431 25.6788 17.9806 24.9642C19.218 24.2498 19.9803 22.9295 19.9803 21.5007C19.9751 21.1629 19.928 20.8271 19.8403 20.5009H21.98C24.0096 20.5088 25.9058 19.4901 27.0192 17.7931C28.1328 16.0961 28.3126 13.9511 27.4974 12.0923C26.6822 10.2334 24.9822 8.91295 22.9794 8.58275L22.9798 8.58288ZM15.9809 23.5006C15.4506 23.5006 14.942 23.2899 14.5669 22.9149C14.192 22.5398 13.9812 22.0312 13.9812 21.5009C13.9812 20.9706 14.1919 20.462 14.5669 20.0869C14.942 19.712 15.4506 19.5012 15.9809 19.5012C16.5112 19.5012 17.0198 19.712 17.3949 20.0869C17.7698 20.462 17.9806 20.9706 17.9806 21.5009C17.9806 22.0312 17.7699 22.5398 17.3949 22.9149C17.0198 23.2898 16.5112 23.5006 15.9809 23.5006ZM21.98 18.5014H18.6005C17.88 17.8569 16.9474 17.5007 15.9809 17.5007C15.0144 17.5007 14.0818 17.8569 13.3613 18.5014H8.98201C8.00495 18.4874 7.09605 17.9985 6.54584 17.191C5.9958 16.3835 5.8734 15.3586 6.21793 14.4444C6.5626 13.53 7.33088 12.8408 8.27703 12.5973C8.52423 12.521 8.73563 12.3582 8.87248 12.1387C9.00918 11.9193 9.06239 11.6578 9.02203 11.4025C8.99827 11.2703 8.98493 11.1366 8.982 11.0025C8.982 10.0744 9.35076 9.18422 10.0069 8.52795C10.6632 7.8718 11.5534 7.50302 12.4815 7.50302H13.9812C14.3345 7.49911 14.6595 7.30904 14.8361 7.00309C15.0866 6.52579 15.4691 6.13052 15.938 5.8646C16.407 5.59869 16.9425 5.47322 17.4807 5.50333C18.4088 5.50333 19.299 5.87209 19.9552 6.52825C20.6114 7.18457 20.9802 8.07473 20.9802 9.00279V9.50272C20.9802 9.76781 21.0855 10.0222 21.2731 10.2097C21.4606 10.3973 21.7149 10.5026 21.98 10.5026C23.4088 10.5026 24.7291 11.2648 25.4435 12.5023C26.1581 13.7397 26.1581 15.2642 25.4435 16.5017C24.7291 17.7391 23.4088 18.5014 21.98 18.5014L21.98 18.5014Z" fill="#FD4D00"/>
<path d="M19.9422 15.314H12.0813C11.6811 15.314 11.3562 14.992 11.3562 14.5953C11.3562 14.1987 11.6811 13.8767 12.0813 13.8767H19.9422C20.3424 13.8767 20.6673 14.1987 20.6673 14.5953C20.6673 14.992 20.3425 15.314 19.9422 15.314Z" fill="#FD4D00"/>
<path d="M18.506 12.6895H13.5489C13.1493 12.6895 12.8248 12.3675 12.8248 11.9708C12.8248 11.5742 13.1493 11.2522 13.5489 11.2522H18.506C18.9057 11.2522 19.2301 11.5742 19.2301 11.9708C19.2301 12.3675 18.9061 12.6895 18.506 12.6895Z" fill="#FD4D00"/>
</svg>
